<svg xmlns="http://www.w3.org/2000/svg" xmlns:xlink="http://www.w3.org/1999/xlink" version="1.1" id="Layer_1" x="0px" y="0px" width="83" viewBox="222.92134831460675 288 596.8539325842696 446.40000000000003" enable-background="new 0 0 1920 1080" xml:space="preserve" height="62">
	d="
M1113.000000,1081.000000 
	C742.000061,1081.000000 371.500122,1081.000000 1.000149,1081.000000 
	C1.000099,721.000122 1.000099,361.000275 1.000050,1.000294 
	C640.999756,1.000196 1280.999512,1.000196 1920.999512,1.000098 
	C1920.999634,360.999664 1920.999634,720.999329 1920.999756,1080.999512 
	C1651.833374,1081.000000 1382.666626,1081.000000 1113.000000,1081.000000 
M324.169739,495.046021 
	C322.446472,495.365967 320.723236,495.685913 318.397949,496.290527 
	C310.011536,504.696869 301.556946,513.036621 293.259949,521.530334 
	C286.398438,528.554443 279.723083,535.760437 272.343658,543.185181 
	C269.570007,545.970581 266.530975,548.547485 264.119202,551.617188 
	C262.597473,553.554077 261.231384,556.200317 261.148315,558.575684 
	C260.840118,567.388489 261.093018,576.220947 261.007507,585.969055 
	C261.052155,612.628174 261.096832,639.287354 261.036804,666.885254 
	C261.025665,675.651245 260.945984,684.417969 261.042572,693.182800 
	C261.074188,696.051147 261.563965,698.914429 262.458405,702.399109 
	C264.249786,702.597168 266.040771,702.962769 267.832611,702.967041 
	C283.477905,703.004333 299.123383,702.990906 314.768738,702.962585 
	C322.008698,702.949524 321.989014,702.919434 321.991882,695.416199 
	C322.009735,648.979553 322.037140,602.542969 322.987183,556.029785 
	C356.302063,555.989624 389.616943,555.949524 423.646332,556.036926 
	C424.126190,555.994507 424.606079,555.952087 425.495453,555.928711 
	C425.495453,555.928711 425.903595,555.889648 426.844940,556.023682 
	C448.497314,556.024414 470.150085,556.092407 491.801697,555.963196 
	C495.639191,555.940308 497.194489,557.095642 497.089142,561.099731 
	C496.914246,567.746277 497.202515,574.405029 497.183472,581.623169 
	C497.144867,581.811157 497.106293,581.999084 496.242218,582.442566 
	C496.162384,590.463867 496.052765,598.485229 496.050262,606.506531 
	C496.050018,607.280334 496.714417,608.054382 497.171356,609.381287 
	C497.205536,609.565552 497.239716,609.749756 497.067291,610.855591 
	C497.138397,621.256897 497.209503,631.658142 497.175507,642.618591 
	C497.139771,642.804871 497.104004,642.991150 496.243134,643.439636 
	C496.169739,657.778870 496.086639,672.118042 496.063049,686.457336 
	C496.062225,686.961243 496.652252,687.466125 496.990906,688.861450 
	C496.738068,691.290710 496.626953,693.745117 496.200134,696.143433 
	C495.509644,700.023071 497.596344,702.945801 501.609100,702.959534 
	C518.673706,703.018066 535.739563,703.036316 552.801880,702.823303 
	C554.184387,702.806030 555.543701,700.929504 556.974792,699.110718 
	C556.960693,697.761841 556.946594,696.412903 557.048462,694.217468 
	C556.997925,692.795837 556.947388,691.374268 556.947327,689.022644 
	C556.960144,612.191345 556.978699,535.360046 556.939209,458.528809 
	C556.938538,457.173492 556.622620,455.494232 555.798706,454.520325 
	C552.491211,450.610718 549.043152,446.802673 545.433960,443.168793 
	C532.644409,430.291870 519.807190,417.461395 506.890778,404.711914 
	C504.173767,402.030029 501.043579,399.766754 497.182861,396.541168 
	C497.182861,400.514954 497.181671,402.843414 497.183014,405.171875 
	C497.198883,433.171112 497.129242,461.170959 497.317017,489.169037 
	C497.347809,493.758972 495.937317,495.291534 491.307312,495.206177 
	C476.245148,494.928436 461.175964,495.032166 445.751251,494.164551 
	C433.830170,494.129578 421.909058,494.094604 409.131134,494.032471 
	C407.173767,494.135040 405.216400,494.237610 402.326202,494.057495 
	C389.830566,494.131012 377.334961,494.204529 363.970764,494.232880 
	C361.053131,494.809296 358.135529,495.385712 354.410370,495.941467 
	C345.418732,495.769196 336.427124,495.596924 326.876831,495.117645 
	C326.242462,495.127167 325.608093,495.136688 324.169739,495.046021 
M266.494965,502.790741 
	C266.797302,502.610229 266.939087,502.344086 267.390625,501.780853 
	C267.588806,501.507080 267.786987,501.233337 268.624664,500.765747 
	C275.140137,494.194733 281.655609,487.623749 288.745819,480.738739 
	C298.994934,470.500488 309.318939,460.334900 319.407501,449.940826 
	C320.821716,448.483795 321.728333,445.919128 321.768860,443.845673 
	C321.996887,432.184631 322.058411,420.512573 321.758881,408.855011 
	C321.694000,406.331146 320.552032,403.231995 318.819916,401.459076 
	C311.651550,394.121979 304.084106,387.173248 296.602814,380.146271 
	C295.953156,379.536072 294.861511,379.396454 293.728363,378.611694 
	C293.519135,378.346130 293.255554,378.155792 292.936768,377.379425 
	C292.272614,376.581116 291.608459,375.782806 290.781677,374.337219 
	C288.526947,372.552246 286.272247,370.767242 283.749969,368.350250 
	C280.501312,365.232788 277.252655,362.115326 273.962189,358.993835 
	C273.962189,358.993835 273.948029,359.033386 273.773956,358.385590 
	C270.516357,354.689667 267.258759,350.993774 264.001160,347.297882 
	C263.084778,347.677490 262.168365,348.057098 261.251984,348.436707 
	C260.728607,399.278046 260.990021,450.128235 261.041351,501.753784 
	C261.785919,503.144836 262.530457,504.535889 263.274994,505.926941 
	C264.133575,504.953217 264.992157,503.979492 265.969543,502.955597 
	C265.969543,502.955597 266.025665,502.839508 266.494965,502.790741 
M573.901062,408.980225 
	C578.925781,408.932251 583.950439,408.884277 589.858032,408.952820 
	C592.227905,408.916748 594.597717,408.880676 597.898682,408.991943 
	C631.213257,408.992645 664.527893,408.948029 697.842163,409.057404 
	C701.575562,409.069641 705.504333,409.361084 709.005676,410.531128 
	C731.377014,418.006897 746.955994,431.771240 751.185730,456.236938 
	C754.753113,476.870972 748.684998,494.321075 733.888550,508.489685 
	C722.977417,518.937866 709.650452,524.438965 694.124634,524.139832 
	C678.305969,523.835083 662.477539,524.022644 646.653381,524.037231 
	C645.129150,524.038635 643.605103,524.341370 641.036133,524.615845 
	C643.367249,528.375977 645.125366,531.211975 647.012878,534.761963 
	C654.250488,547.571655 661.431519,560.413696 668.741821,573.181763 
	C675.747131,585.416992 682.831360,597.607849 689.985413,609.756714 
	C695.186401,618.588867 700.557739,627.320801 705.909546,636.825317 
	C707.715149,640.126953 709.465698,643.460205 711.335632,646.724976 
	C720.549377,662.811523 729.949829,678.793823 738.948181,694.999512 
	C742.273193,700.987793 746.367310,703.389832 753.485107,703.129028 
	C770.773499,702.495789 788.098816,702.900818 805.408203,702.763123 
	C807.421997,702.747131 809.429688,701.947266 811.440186,701.510803 
	C810.792053,699.394958 810.509277,697.069641 809.435791,695.197754 
	C803.137695,684.216064 796.561646,673.393799 790.258545,662.414856 
	C782.776672,649.382690 775.469910,636.249939 768.098999,623.154175 
	C760.764099,610.122437 753.477234,597.063416 746.074524,584.070435 
	C745.150940,582.449341 743.647644,581.158569 742.341614,579.667114 
	C742.341614,579.667114 742.306274,579.588989 742.194214,578.933472 
	C741.259216,576.171204 742.049194,575.115173 744.994568,573.757874 
	C751.364075,570.822632 757.784973,567.475159 763.176086,563.063538 
	C771.165161,556.525879 778.662048,549.273071 785.680908,541.688354 
	C798.199341,528.160522 805.578369,511.749176 809.848267,494.008698 
	C813.108337,480.463898 813.482056,466.753845 812.184509,452.756348 
	C810.584167,435.492310 805.381653,419.612030 796.489868,405.061310 
	C788.924744,392.681366 779.581360,381.569336 768.038513,372.485840 
	C755.091858,362.297729 740.699890,355.320953 724.839233,350.692963 
	C708.661133,345.972382 692.201538,348.549866 675.004517,347.024017 
	C667.361755,347.043152 659.719055,347.062256 651.137207,346.949615 
	C641.745789,346.983124 632.354370,347.016663 622.103210,346.972443 
	C620.094055,347.010590 618.084900,347.048737 615.513000,347.001434 
	C615.325684,347.031677 615.138428,347.061951 614.493591,347.031891 
	C614.493591,347.031891 614.033264,347.064514 613.345093,346.933960 
	C612.882141,346.977264 612.419250,347.020599 611.078186,346.991974 
	C608.727966,346.997192 606.377808,347.002411 603.104553,346.880157 
	C599.065735,346.925568 595.026978,346.970978 590.053101,346.992584 
	C579.030945,346.990082 568.008606,346.952301 556.987000,347.031250 
	C555.658264,347.040771 554.334045,347.682098 552.177795,348.105682 
	C550.792480,348.056091 549.407166,348.006500 547.586975,347.223999 
	C543.718750,347.470032 539.850464,347.716034 535.157898,348.063568 
	C533.775879,348.028564 532.393799,347.993591 530.655457,347.317322 
	C529.095764,347.523865 527.536011,347.730408 525.241516,348.048920 
	C524.501282,348.010681 523.760986,347.972473 522.538147,347.222412 
	C515.099670,347.185547 507.660767,347.100403 500.223358,347.170319 
	C499.244293,347.179535 498.272675,347.981110 497.297607,348.415680 
	C497.823029,349.290863 498.348450,350.166046 499.184845,351.639801 
	C510.447266,362.789368 521.709717,373.938934 533.224304,385.700867 
	C536.544312,388.931915 539.864319,392.162964 543.329407,395.668182 
	C543.329407,395.668182 543.598999,395.821472 543.865967,396.278564 
	C544.557190,396.859894 545.248352,397.441223 546.095947,398.505188 
	C546.371765,398.685181 546.647522,398.865173 547.168274,399.668427 
	C549.774658,402.059387 552.381042,404.450348 555.508545,406.932465 
	C555.677979,406.883484 555.847412,406.834473 556.485840,406.909210 
	C556.485840,406.909210 556.956787,407.025024 557.340637,407.713104 
	C561.244690,408.093719 565.148743,408.474335 569.828003,408.992554 
	C570.875122,408.951202 571.922302,408.909851 573.901062,408.980225 
M1132.000000,458.500000 
	C1132.000000,443.406860 1132.000000,428.313721 1132.000000,413.275696 
	C1121.687500,413.275696 1111.943359,413.275696 1101.800293,413.275696 
	C1101.800293,416.904205 1101.800293,420.268127 1101.800293,423.523743 
	C1098.502075,421.267975 1095.677856,418.683716 1092.362915,417.183502 
	C1078.844849,411.065521 1064.855835,410.572296 1050.439331,413.823456 
	C1035.901611,417.101990 1026.356567,425.395813 1023.593018,440.096710 
	C1022.385132,446.522369 1022.434082,453.395386 1023.163025,459.925598 
	C1024.315552,470.249756 1029.621216,478.462189 1038.659912,483.938629 
	C1047.618286,489.366364 1057.493896,490.165558 1067.725952,490.102478 
	C1080.461548,490.024017 1092.108398,487.491058 1101.623291,478.195465 
	C1102.315552,488.283173 1096.511719,498.196655 1087.504395,500.287262 
	C1074.827148,503.229675 1062.532104,500.884857 1050.129883,499.507050 
	C1043.815186,498.805511 1037.597168,497.234650 1031.204224,496.032074 
	C1031.204224,504.533844 1031.204224,512.645630 1031.204224,521.126221 
	C1040.315796,522.445740 1049.297852,523.629150 1058.238647,525.068665 
	C1071.742310,527.242798 1085.290894,527.803650 1098.667358,524.860229 
	C1107.189941,522.984985 1115.538086,519.697510 1121.436523,512.904907 
	C1129.287842,503.863434 1132.339478,492.941315 1132.033691,480.991089 
	C1131.850464,473.831787 1132.000000,466.663971 1132.000000,458.500000 
M1006.437744,635.003723 
	C1012.315613,632.313599 1018.193420,629.623413 1023.934998,626.995667 
	C1024.674194,634.339966 1019.385803,644.677063 1012.413025,646.015259 
	C1005.442871,647.352966 998.253723,649.233643 991.321289,648.717529 
	C978.609558,647.770996 966.015991,645.237183 953.269836,643.349792 
	C953.269836,651.422546 953.269836,659.671326 953.269836,668.107178 
	C962.482605,669.481140 971.455078,670.837097 980.433289,672.154175 
	C994.102051,674.159241 1007.877686,675.087463 1021.374084,671.752869 
	C1042.973755,666.416138 1053.993774,652.772095 1053.999023,629.311218 
	C1054.003784,607.817932 1054.000000,586.324585 1054.000000,564.831299 
	C1054.000000,563.250488 1054.000000,561.669617 1054.000000,560.338013 
	C1043.553223,560.338013 1033.804443,560.338013 1023.877869,560.338013 
	C1023.877869,563.948792 1023.877869,567.221191 1023.877869,570.750488 
	C1021.225342,568.742065 1019.005798,566.568237 1016.377441,565.154297 
	C1002.962463,557.937805 988.448792,557.367249 974.063171,560.237915 
	C962.215088,562.602356 952.322205,568.745361 947.477844,580.926392 
	C944.655579,588.023193 944.893860,595.340942 945.014587,602.691833 
	C945.164490,611.825134 948.168640,620.187256 954.894714,626.171997 
	C969.772400,639.410156 987.510010,638.763000 1006.437744,635.003723 
M901.500000,399.000000 
	C890.744934,399.000000 879.989868,399.000000 869.238159,399.000000 
	C869.238159,430.594727 869.238159,461.639343 869.238159,493.000000 
	C871.102356,493.000000 872.732483,493.000000 874.362549,493.000000 
	C896.501709,493.000000 918.641113,493.040588 940.779907,492.955109 
	C944.011658,492.942627 947.346619,492.733307 950.453430,491.923340 
	C964.430603,488.279572 974.440674,480.084747 979.421631,466.168396 
	C983.016602,456.124298 984.029724,445.894196 981.942383,435.465668 
	C980.287415,427.197632 977.459290,419.349030 971.527344,413.032684 
	C962.304016,403.211731 950.451355,399.469940 937.454346,399.074554 
	C925.812866,398.720398 914.152222,399.000000 901.500000,399.000000 
M860.476562,553.015991 
	C847.633423,581.808105 834.790283,610.600220 821.785217,639.755188 
	C833.948608,639.755188 845.687805,639.755188 857.335449,639.755188 
	C859.507446,634.988892 861.587830,630.154663 863.943237,625.458374 
	C864.477234,624.393677 865.957886,623.117554 867.015869,623.105652 
	C880.941650,622.948792 894.869812,623.001221 908.731323,623.001221 
	C910.935486,628.119995 912.868835,632.886047 915.074402,637.522644 
	C915.576477,638.578125 917.009827,639.876770 918.032776,639.892761 
	C928.962524,640.063782 939.895935,639.999084 951.712219,639.999084 
	C937.514404,608.179565 923.637085,577.078186 909.770142,546.000000 
	C896.404785,546.000000 883.407166,546.357300 870.445557,545.830750 
	C864.970764,545.608398 862.280396,547.536987 860.476562,553.015991 
M1286.725098,414.002136 
	C1280.026367,415.669342 1273.330078,417.346039 1266.627686,418.998108 
	C1264.568359,419.505707 1263.398682,419.956665 1264.841431,422.614441 
	C1267.505127,427.521271 1269.873657,432.625916 1271.892090,437.831573 
	C1273.128296,441.019928 1274.831909,441.495697 1277.800903,440.660034 
	C1292.222290,436.601044 1307.021240,436.631073 1321.799927,437.073456 
	C1329.140747,437.293213 1333.691406,441.500977 1333.435181,446.660217 
	C1325.320557,445.441742 1317.194458,443.280518 1309.058838,443.244843 
	C1299.503296,443.202942 1289.855835,444.521912 1280.404419,446.154968 
	C1271.909180,447.622772 1264.271118,451.593689 1259.972778,459.558990 
	C1252.844238,472.769592 1259.044922,487.248627 1273.604614,492.009827 
	C1288.395996,496.846863 1303.175903,495.350739 1317.784668,491.510620 
	C1323.704224,489.954590 1329.257446,487.005707 1335.258789,484.576691 
	C1335.258789,487.308197 1335.258789,490.063293 1335.258789,492.709198 
	C1345.328003,492.709198 1355.061646,492.709198 1363.999146,492.709198 
	C1363.999146,476.368805 1364.564453,460.294556 1363.752808,444.290070 
	C1363.365967,436.660767 1360.190308,429.144104 1354.147217,423.725281 
	C1344.637939,415.198425 1332.825562,412.327087 1320.570557,412.169952 
	C1309.595215,412.029205 1298.601196,413.333374 1286.725098,414.002136 
M1059.024902,593.951416 
	C1059.350220,599.193054 1059.269531,604.498901 1060.086548,609.662720 
	C1061.696777,619.838013 1066.815674,627.883850 1075.784424,633.343628 
	C1085.922363,639.515137 1097.268921,641.647705 1108.724243,641.770081 
	C1118.613770,641.875732 1128.791138,641.088257 1138.365601,638.748718 
	C1154.227661,634.872742 1164.294678,626.380066 1166.921753,610.000000 
	C1162.573120,610.000000 1158.291382,609.952942 1154.010864,610.010193 
	C1145.932861,610.118164 1137.468872,608.453979 1130.751953,615.012146 
	C1130.219116,615.532410 1129.340698,615.747192 1128.585205,615.983643 
	C1119.956177,618.683838 1111.135986,618.783020 1102.496582,616.659424 
	C1097.052979,615.321350 1091.892212,612.696228 1090.376831,605.881470 
	C1116.233887,605.881470 1141.963989,605.881470 1167.633545,605.881470 
	C1169.468506,594.413696 1164.056030,578.168701 1155.226929,570.581482 
	C1145.855103,562.527771 1134.613770,560.026001 1123.000732,559.179688 
	C1114.820679,558.583557 1106.469971,559.214783 1098.280273,560.090759 
	C1079.249268,562.126221 1062.871826,570.852356 1059.024902,593.951416 
M1388.306763,560.207947 
	C1388.256104,560.366577 1388.116455,560.564758 1388.166992,560.678345 
	C1399.685181,586.573303 1411.193726,612.472717 1422.844238,638.308228 
	C1423.246582,639.200256 1425.047974,639.853149 1426.238770,639.924255 
	C1429.777222,640.135437 1433.336304,639.999939 1437.236084,639.999939 
	C1432.385620,651.579102 1427.840332,662.429443 1423.066895,673.824585 
	C1434.689819,673.824585 1445.154663,673.824585 1455.848389,673.824585 
	C1471.891479,636.041626 1487.959106,598.201233 1504.122925,560.134277 
	C1492.872314,560.134277 1482.070068,560.134277 1471.252075,560.134277 
	C1463.119141,579.143555 1455.031982,598.046265 1446.789307,617.312317 
	C1437.892090,597.802979 1429.307617,578.979370 1420.658081,560.013245 
	C1410.135986,560.013245 1399.647949,560.013245 1388.306763,560.207947 
M1283.000122,626.492126 
	C1282.666748,612.586426 1282.686646,598.659607 1281.856079,584.783630 
	C1281.417603,577.456726 1277.667725,570.818054 1271.821533,566.548828 
	C1260.331909,558.158752 1246.748901,557.704163 1233.354736,559.459229 
	C1222.627441,560.864990 1212.206665,564.120361 1202.698975,571.254700 
	C1202.698975,566.962341 1202.698975,563.541992 1202.698975,560.325806 
	C1192.605347,560.325806 1182.868042,560.325806 1173.000000,560.325806 
	C1173.000000,573.801392 1173.000000,586.951538 1173.000000,600.101624 
	C1173.000000,613.352966 1173.000000,626.604370 1173.000000,639.680115 
	C1183.379761,639.680115 1193.118286,639.680115 1203.000000,639.680115 
	C1203.000000,626.212280 1202.930298,613.062988 1203.083008,599.916260 
	C1203.103394,598.159058 1203.715210,595.664917 1204.956421,594.782288 
	C1215.872192,587.020020 1227.852173,582.685791 1241.334229,586.175354 
	C1244.499146,586.994629 1248.426025,589.342712 1249.681274,592.059753 
	C1251.773682,596.589111 1252.656616,601.957031 1252.863281,607.020203 
	C1253.308350,617.929138 1253.000000,628.868774 1253.000000,639.709961 
	C1263.319092,639.709961 1273.056396,639.709961 1283.000000,639.709961 
	C1283.000000,635.444092 1283.000000,631.466553 1283.000122,626.492126 
M1332.926392,584.001343 
	C1338.090698,584.000916 1343.289307,583.624207 1348.411011,584.091614 
	C1355.406372,584.730164 1362.206421,586.247437 1365.379395,593.603943 
	C1375.559082,593.603943 1385.742676,593.603943 1396.261475,593.603943 
	C1395.747803,591.924561 1395.269165,590.728699 1395.019653,589.486877 
	C1392.389893,576.394653 1384.378174,567.994080 1372.072021,563.577759 
	C1354.307495,557.202515 1336.021362,557.421448 1317.947388,561.229431 
	C1305.657593,563.818848 1295.204956,569.927063 1289.782715,582.551453 
	C1285.890625,591.613159 1286.217163,601.061401 1287.407715,610.133667 
	C1288.565186,618.953430 1293.229858,626.723755 1301.187256,632.079895 
	C1312.592163,639.756653 1325.548462,641.562195 1338.642090,641.784851 
	C1347.187256,641.930176 1355.823853,640.348999 1364.320557,638.943604 
	C1382.722656,635.899536 1394.367798,623.837769 1395.804565,606.183228 
	C1385.660034,606.183228 1375.528076,606.183228 1365.348755,606.183228 
	C1363.451416,611.364990 1359.729492,614.293762 1354.237793,615.019531 
	C1351.676880,615.358032 1349.117920,615.724609 1346.571899,616.158813 
	C1338.381714,617.555420 1330.373169,616.809875 1323.040039,612.928772 
	C1314.507935,608.413147 1314.173340,593.143005 1322.413086,588.041199 
	C1325.327271,586.236755 1328.800171,585.334351 1332.926392,584.001343 
M1249.270020,468.999878 
	C1242.293457,469.000946 1235.313965,469.126373 1228.341553,468.956055 
	C1224.220703,468.855408 1221.484741,466.309326 1221.091797,462.373230 
	C1220.296753,454.410156 1220.041382,446.393219 1219.537842,437.970428 
	C1231.494141,437.970428 1242.565918,437.970428 1253.790894,437.970428 
	C1253.790894,429.509674 1253.790894,421.442108 1253.790894,412.982849 
	C1242.518433,412.982849 1231.446289,412.982849 1220.047241,412.982849 
	C1220.047241,405.526947 1220.047241,398.454407 1220.047241,391.267548 
	C1210.799683,393.569092 1201.869751,395.684631 1193.026733,398.115906 
	C1191.798584,398.453552 1190.268555,400.273468 1190.137939,401.537537 
	C1189.752686,405.262756 1190.000488,409.053467 1190.000488,413.190216 
	C1184.008057,413.190216 1178.597778,413.190216 1173.291504,413.190216 
	C1173.291504,421.660248 1173.291504,429.729828 1173.291504,438.186981 
	C1178.986816,438.186981 1184.397339,438.186981 1190.000000,438.186981 
	C1190.000000,449.053833 1189.887451,459.527008 1190.032104,469.996582 
	C1190.173340,480.213959 1195.331299,488.747833 1206.517822,492.144836 
	C1222.333252,496.947357 1238.063477,494.546478 1253.708740,492.834229 
	C1253.708740,484.247986 1253.708740,476.175415 1253.708740,468.024353 
	C1252.338257,468.402863 1251.261230,468.700378 1249.270020,468.999878 
M1401.000000,424.500000 
	C1401.000000,411.737366 1401.000000,398.974701 1401.000000,386.288940 
	C1390.685913,386.288940 1380.947266,386.288940 1371.286377,386.288940 
	C1371.286377,421.979492 1371.286377,457.380341 1371.286377,492.711060 
	C1381.313965,492.711060 1391.052612,492.711060 1401.000000,492.711060 
	C1401.000000,470.115234 1401.000000,447.807617 1401.000000,424.500000 
M996.541687,413.000000 
	C993.768860,413.000000 990.996094,413.000000 988.272705,413.000000 
	C988.272705,439.950165 988.272705,466.352020 988.272705,492.724915 
	C998.285950,492.724915 1008.024109,492.724915 1017.725891,492.724915 
	C1017.725891,466.046997 1017.725891,439.645111 1017.725891,413.000000 
	C1010.814209,413.000000 1004.173828,413.000000 996.541687,413.000000 
M1168.000000,489.348328 
	C1168.000000,463.934631 1168.000000,438.520966 1168.000000,413.343567 
	C1157.576050,413.343567 1147.834473,413.343567 1138.345459,413.343567 
	C1138.345459,440.092712 1138.345459,466.497528 1138.345459,492.999908 
	C1147.350220,492.999908 1156.010132,492.974304 1164.669678,493.019531 
	C1166.615356,493.029663 1168.488770,493.199158 1168.000000,489.348328 
M1168.000000,401.426575 
	C1168.000000,396.335480 1168.000000,391.244415 1168.000000,386.315369 
	C1157.631104,386.315369 1147.891846,386.315369 1138.317871,386.315369 
	C1138.317871,393.708099 1138.317871,400.782104 1138.317871,407.679810 
	C1148.377075,407.679810 1158.115845,407.679810 1168.000000,407.679810 
	C1168.000000,405.707550 1168.000000,404.054840 1168.000000,401.426575 
M1005.490295,386.000000 
	C999.727905,386.000000 993.965576,386.000000 988.290894,386.000000 
	C988.290894,393.654449 988.290894,400.726410 988.290894,407.709137 
	C998.321350,407.709137 1008.058411,407.709137 1017.707947,407.709137 
	C1017.707947,400.343231 1017.707947,393.271240 1017.707947,386.000000 
	C1013.773987,386.000000 1010.128723,386.000000 1005.490295,386.000000 
z"/&gt;
<path fill="#096197" opacity="1.000000" stroke="none" d=" M497.273865,609.934021   C497.239716,609.749756 497.205536,609.565552 497.112061,608.924683   C497.052765,608.468079 497.121277,608.113159 497.400330,607.789795   C497.490417,599.271606 497.301453,591.076721 497.079407,582.709534   C497.046356,582.537231 497.067688,582.186951 497.067688,582.186951   C497.106293,581.999084 497.144867,581.811157 497.471741,581.016968   C498.147858,573.026001 498.498413,565.638977 498.942139,558.257568   C499.116943,555.349304 497.878113,553.910828 495.041656,553.552490   C495.486938,552.111328 496.336700,550.915039 496.172852,549.878967   C495.652191,546.586792 494.208679,543.371643 494.104858,540.095520   C493.809601,530.779175 493.944183,521.446838 494.023499,512.121765   C494.068237,506.857544 494.585205,501.545502 491.416626,497.029297   C499.007751,496.958801 499.010376,496.958801 499.010193,489.833710   C499.009460,462.001129 499.003082,434.168549 499.015472,406.335968   C499.016144,404.802643 499.166595,403.269409 499.292877,400.870483   C513.359924,415.672363 526.715759,429.725861 540.223083,443.938751   C535.471313,446.385712 533.923096,449.178009 536.847412,453.402496   C537.313232,454.075439 537.393433,455.190796 537.282776,456.054321   C536.953979,458.620667 536.058167,461.163086 536.055725,463.715485   C535.986694,537.213440 536.023804,610.711426 535.940979,684.209412   C535.935974,688.619324 535.079651,693.028259 534.595825,697.663940   C538.616882,697.663940 543.599243,697.663940 548.738037,697.663940   C548.433411,698.875977 548.195618,699.822388 547.495483,700.825073   C532.590759,700.913635 518.148376,700.955200 503.705994,700.968567   C501.443085,700.970642 498.957794,701.514282 498.891449,697.770935   C498.777191,691.325562 498.177368,684.888428 498.080688,678.443298   C497.933777,668.651062 498.087158,658.854675 498.001740,649.060974   C497.986481,647.316467 497.431213,645.576782 497.085693,643.672668   C497.046051,643.510498 497.068268,643.177429 497.068268,643.177429   C497.104004,642.991150 497.139771,642.804871 497.466248,642.001221   C497.851257,636.611572 498.087280,631.836914 498.003357,627.067871   C497.902832,621.354065 497.529205,615.645081 497.273865,609.934021  z"/>
<path fill="#085F95" opacity="1.000000" stroke="none" d=" M646.883545,534.047913   C645.125366,531.211975 643.367249,528.375977 641.036133,524.615845   C643.605103,524.341370 645.129150,524.038635 646.653381,524.037231   C662.477539,524.022644 678.305969,523.835083 694.124634,524.139832   C709.650452,524.438965 722.977417,518.937866 733.888550,508.489685   C748.684998,494.321075 754.753113,476.870972 751.185730,456.236938   C746.955994,431.771240 731.377014,418.006897 709.005676,410.531128   C705.504333,409.361084 701.575562,409.069641 697.842163,409.057404   C664.527893,408.948029 631.213257,408.992645 597.444763,408.573730   C597.013733,407.465942 597.036621,406.776306 597.426514,406.070587   C598.529724,406.045471 599.265991,406.036469 600.470947,406.031067   C619.626648,406.024628 638.313721,406.014557 657.375732,406.007690   C658.500671,406.006104 659.250610,406.001282 660.400391,405.998169   C661.866699,405.997986 662.933044,405.996033 664.468140,405.999573   C671.255737,406.004333 677.574646,406.010712 683.893555,406.001312   C695.825623,405.983521 707.797424,405.617462 719.034180,410.795685   C719.876587,411.183899 721.002136,410.957703 722.047119,411.354980   C729.618103,418.345184 737.156250,424.977112 744.644836,431.664551   C746.440796,433.268402 748.072083,435.056580 749.779175,436.760010   C749.854187,434.475220 749.991699,432.190460 749.994202,429.905609   C750.012634,412.907074 749.800720,395.904297 750.157532,378.913239   C750.239502,375.008423 751.599792,371.286102 747.028625,368.328491   C749.956604,368.041962 754.168518,372.538910 754.317322,366.136780   C770.037537,376.133392 783.183960,388.297333 792.661377,404.087524   C799.578308,415.611755 805.260925,427.718262 807.986145,440.969788   C810.956909,455.415741 810.792542,470.003448 808.984192,484.567657   C806.528259,504.347321 797.756165,521.496094 786.104004,537.263123   C782.472046,542.177673 777.813293,546.325012 773.722900,550.911255   C767.590027,557.787537 760.449097,563.267456 752.002563,566.659302   C751.858215,563.933289 751.607971,561.567383 751.606445,559.201416   C751.592957,537.947632 751.635803,516.693787 751.587708,495.440125   C751.585999,494.700165 750.806030,493.961975 750.201416,492.890961   C738.651611,511.263672 723.005188,522.948608 701.719116,526.702820   C698.947632,526.305298 696.471741,526.105896 693.994873,526.092896   C686.089844,526.051331 678.184570,526.079468 670.279358,526.079956   C662.038452,526.080444 653.797485,526.080078 644.583740,526.080078   C646.015320,528.983948 647.006470,530.994385 647.872681,533.236694   C647.459656,533.661682 647.171631,533.854797 646.883545,534.047913  z"/>
<path fill="#FFFFFF" opacity="1.000000" stroke="none" d=" M1132.000000,459.000000   C1132.000000,466.663971 1131.850464,473.831787 1132.033691,480.991089   C1132.339478,492.941315 1129.287842,503.863434 1121.436523,512.904907   C1115.538086,519.697510 1107.189941,522.984985 1098.667358,524.860229   C1085.290894,527.803650 1071.742310,527.242798 1058.238647,525.068665   C1049.297852,523.629150 1040.315796,522.445740 1031.204224,521.126221   C1031.204224,512.645630 1031.204224,504.533844 1031.204224,496.032074   C1037.597168,497.234650 1043.815186,498.805511 1050.129883,499.507050   C1062.532104,500.884857 1074.827148,503.229675 1087.504395,500.287262   C1096.511719,498.196655 1102.315552,488.283173 1101.623291,478.195465   C1092.108398,487.491058 1080.461548,490.024017 1067.725952,490.102478   C1057.493896,490.165558 1047.618286,489.366364 1038.659912,483.938629   C1029.621216,478.462189 1024.315552,470.249756 1023.163025,459.925598   C1022.434082,453.395386 1022.385132,446.522369 1023.593018,440.096710   C1026.356567,425.395813 1035.901611,417.101990 1050.439331,413.823456   C1064.855835,410.572296 1078.844849,411.065521 1092.362915,417.183502   C1095.677856,418.683716 1098.502075,421.267975 1101.800293,423.523743   C1101.800293,420.268127 1101.800293,416.904205 1101.800293,413.275696   C1111.943359,413.275696 1121.687500,413.275696 1132.000000,413.275696   C1132.000000,428.313721 1132.000000,443.406860 1132.000000,459.000000  M1083.328491,437.000000   C1076.433350,437.334808 1069.482910,437.244202 1062.659180,438.129822   C1056.437500,438.937256 1052.078735,444.489471 1052.000000,450.252380   C1051.904419,457.232635 1055.902344,463.051422 1062.674438,463.847687   C1070.828613,464.806488 1079.233154,465.694550 1087.312500,464.752441   C1099.595093,463.320160 1104.803955,456.097961 1100.861816,445.531738   C1098.136597,438.226959 1091.088013,437.388245 1083.328491,437.000000  z"/>
<path fill="#FFFFFF" opacity="1.000000" stroke="none" d=" M1006.011963,635.026550   C987.510010,638.763000 969.772400,639.410156 954.894714,626.171997   C948.168640,620.187256 945.164490,611.825134 945.014587,602.691833   C944.893860,595.340942 944.655579,588.023193 947.477844,580.926392   C952.322205,568.745361 962.215088,562.602356 974.063171,560.237915   C988.448792,557.367249 1002.962463,557.937805 1016.377441,565.154297   C1019.005798,566.568237 1021.225342,568.742065 1023.877869,570.750488   C1023.877869,567.221191 1023.877869,563.948792 1023.877869,560.338013   C1033.804443,560.338013 1043.553223,560.338013 1054.000000,560.338013   C1054.000000,561.669617 1054.000000,563.250488 1054.000000,564.831299   C1054.000000,586.324585 1054.003784,607.817932 1053.999023,629.311218   C1053.993774,652.772095 1042.973755,666.416138 1021.374084,671.752869   C1007.877686,675.087463 994.102051,674.159241 980.433289,672.154175   C971.455078,670.837097 962.482605,669.481140 953.269836,668.107178   C953.269836,659.671326 953.269836,651.422546 953.269836,643.349792   C966.015991,645.237183 978.609558,647.770996 991.321289,648.717529   C998.253723,649.233643 1005.442871,647.352966 1012.413025,646.015259   C1019.385803,644.677063 1024.674194,634.339966 1023.934998,626.995667   C1018.193420,629.623413 1012.315613,632.313599 1006.011963,635.026550  M981.115723,609.643616   C992.965515,613.240601 1004.924622,613.274597 1016.729858,609.862732   C1021.263672,608.552368 1024.480591,604.914185 1024.050781,597.110046   C1023.750061,591.650024 1021.406250,587.619202 1016.479370,586.035339   C1005.584106,582.532654 994.452393,583.355225 983.504700,585.373413   C979.519836,586.107971 975.392517,588.859741 975.107117,593.758057   C974.774231,599.471069 973.578064,605.825928 981.115723,609.643616  z"/>
<path fill="#FFFFFF" opacity="1.000000" stroke="none" d=" M902.000000,399.000000   C914.152222,399.000000 925.812866,398.720398 937.454346,399.074554   C950.451355,399.469940 962.304016,403.211731 971.527344,413.032684   C977.459290,419.349030 980.287415,427.197632 981.942383,435.465668   C984.029724,445.894196 983.016602,456.124298 979.421631,466.168396   C974.440674,480.084747 964.430603,488.279572 950.453430,491.923340   C947.346619,492.733307 944.011658,492.942627 940.779907,492.955109   C918.641113,493.040588 896.501709,493.000000 874.362549,493.000000   C872.732483,493.000000 871.102356,493.000000 869.238159,493.000000   C869.238159,461.639343 869.238159,430.594727 869.238159,399.000000   C879.989868,399.000000 890.744934,399.000000 902.000000,399.000000  M920.496216,466.000000   C924.324829,466.000000 928.158447,466.125244 931.980835,465.970825   C937.793274,465.735992 943.585327,464.877625 946.914429,459.399719   C948.676697,456.499969 949.674622,453.062042 950.617188,449.752991   C952.582336,442.854614 948.699402,432.530182 942.396240,429.142761   C939.572510,427.625244 935.945068,427.113464 932.660645,427.033447   C922.176270,426.777954 911.681763,426.938660 901.291748,426.938660   C901.291748,439.672668 901.291748,452.734314 901.291748,466.000000   C907.554016,466.000000 913.526062,466.000000 920.496216,466.000000  z"/>
<path fill="#FFFFFF" opacity="1.000000" stroke="none" d=" M860.720215,552.706543   C862.280396,547.536987 864.970764,545.608398 870.445557,545.830750   C883.407166,546.357300 896.404785,546.000000 909.770142,546.000000   C923.637085,577.078186 937.514404,608.179565 951.712219,639.999084   C939.895935,639.999084 928.962524,640.063782 918.032776,639.892761   C917.009827,639.876770 915.576477,638.578125 915.074402,637.522644   C912.868835,632.886047 910.935486,628.119995 908.731323,623.001221   C894.869812,623.001221 880.941650,622.948792 867.015869,623.105652   C865.957886,623.117554 864.477234,624.393677 863.943237,625.458374   C861.587830,630.154663 859.507446,634.988892 857.335449,639.755188   C845.687805,639.755188 833.948608,639.755188 821.785217,639.755188   C834.790283,610.600220 847.633423,581.808105 860.720215,552.706543  M879.963562,586.393494   C878.006226,590.817749 876.048828,595.242065 874.065186,599.725830   C882.739502,599.725830 890.778748,599.725830 899.227051,599.725830   C895.004944,589.888611 890.947998,580.436035 886.746277,570.646179   C884.342957,576.006165 882.189758,580.808228 879.963562,586.393494  z"/>
<path fill="#096BA1" opacity="1.000000" stroke="none" d=" M702.014282,526.986206   C723.005188,522.948608 738.651611,511.263672 750.201416,492.890961   C750.806030,493.961975 751.585999,494.700165 751.587708,495.440125   C751.635803,516.693787 751.592957,537.947632 751.606445,559.201416   C751.607971,561.567383 751.858215,563.933289 751.680664,566.802673   C747.758545,569.297485 743.964294,571.022766 740.595947,573.361511   C737.722229,575.356934 738.612366,578.074158 742.306274,579.588989   C742.306274,579.588989 742.341614,579.667114 742.250061,580.069153   C744.445679,585.311707 746.732849,590.152161 748.673767,595.183472   C747.885010,597.059143 747.108337,598.734741 747.060913,600.430725   C746.900940,606.152588 747.000000,611.881714 747.000000,617.608032   C747.000000,639.196106 747.011658,660.784241 746.979065,682.372253   C746.976318,684.197815 746.677795,686.023010 746.495972,688.082886   C744.381897,687.207520 743.041199,686.652405 740.764221,685.709595   C742.358032,688.733215 743.760254,690.616577 744.380676,692.729553   C745.737671,697.350769 748.578186,698.649048 753.173096,698.143616   C755.025635,697.939819 757.054077,699.335876 758.538940,700.009216   C749.944946,701.093933 743.376526,699.718079 739.421021,691.141968   C735.712219,683.100708 730.897644,675.561279 726.444031,667.873840   C720.840454,658.201599 715.159058,648.573120 709.371582,639.010254   C708.627136,637.780029 707.046448,637.055969 705.853149,636.097412   C700.557739,627.320801 695.186401,618.588867 689.985413,609.756714   C682.831360,597.607849 675.747131,585.416992 668.741821,573.181763   C661.431519,560.413696 654.250488,547.571655 646.948242,534.404907   C647.171631,533.854797 647.459656,533.661682 648.147339,533.431824   C654.172913,542.941040 659.847229,552.458984 665.413391,562.039734   C673.285828,575.590088 681.011475,589.226135 688.933350,602.747375   C692.848694,609.430115 697.062744,615.937805 701.277954,622.744873   C701.938171,620.602539 702.447876,618.926270 702.971802,617.254333   C703.598633,615.253723 704.693237,613.273193 704.765625,611.254578   C704.876953,608.148010 704.054443,605.017639 704.039246,601.895325   C703.956604,584.920715 704.204468,567.941956 703.910339,550.972046   C703.771606,542.968262 702.676147,534.980957 702.014282,526.986206  M739.530945,584.344055   C739.046753,583.697754 738.562561,583.051453 738.078308,582.405212   C737.783386,582.711365 737.488464,583.017517 737.193542,583.323669   C737.808472,583.801697 738.423401,584.279663 739.530945,584.344055  z"/>
<path fill="#FFFFFF" opacity="1.000000" stroke="none" d=" M1287.170288,414.001099   C1298.601196,413.333374 1309.595215,412.029205 1320.570557,412.169952   C1332.825562,412.327087 1344.637939,415.198425 1354.147217,423.725281   C1360.190308,429.144104 1363.365967,436.660767 1363.752808,444.290070   C1364.564453,460.294556 1363.999146,476.368805 1363.999146,492.709198   C1355.061646,492.709198 1345.328003,492.709198 1335.258789,492.709198   C1335.258789,490.063293 1335.258789,487.308197 1335.258789,484.576691   C1329.257446,487.005707 1323.704224,489.954590 1317.784668,491.510620   C1303.175903,495.350739 1288.395996,496.846863 1273.604614,492.009827   C1259.044922,487.248627 1252.844238,472.769592 1259.972778,459.558990   C1264.271118,451.593689 1271.909180,447.622772 1280.404419,446.154968   C1289.855835,444.521912 1299.503296,443.202942 1309.058838,443.244843   C1317.194458,443.280518 1325.320557,445.441742 1333.435181,446.660217   C1333.691406,441.500977 1329.140747,437.293213 1321.799927,437.073456   C1307.021240,436.631073 1292.222290,436.601044 1277.800903,440.660034   C1274.831909,441.495697 1273.128296,441.019928 1271.892090,437.831573   C1269.873657,432.625916 1267.505127,427.521271 1264.841431,422.614441   C1263.398682,419.956665 1264.568359,419.505707 1266.627686,418.998108   C1273.330078,417.346039 1280.026367,415.669342 1287.170288,414.001099  M1290.080933,472.599518   C1291.607056,473.066254 1293.114136,473.857208 1294.662476,473.948700   C1307.654053,474.716309 1320.237427,472.678650 1332.345703,467.932800   C1333.424683,467.509888 1334.110229,466.083191 1334.978516,465.122650   C1334.026367,464.415222 1333.114868,463.159058 1332.115723,463.084747   C1321.343872,462.284119 1310.564087,461.502747 1299.772217,461.119263   C1297.004639,461.020905 1294.116577,462.132446 1291.408081,463.053162   C1287.006714,464.549255 1286.306152,468.154907 1290.080933,472.599518  z"/>
<path fill="#FFFFFF" opacity="1.000000" stroke="none" d=" M1059.195312,593.531128   C1062.871826,570.852356 1079.249268,562.126221 1098.280273,560.090759   C1106.469971,559.214783 1114.820679,558.583557 1123.000732,559.179688   C1134.613770,560.026001 1145.855103,562.527771 1155.226929,570.581482   C1164.056030,578.168701 1169.468506,594.413696 1167.633545,605.881470   C1141.963989,605.881470 1116.233887,605.881470 1090.376831,605.881470   C1091.892212,612.696228 1097.052979,615.321350 1102.496582,616.659424   C1111.135986,618.783020 1119.956177,618.683838 1128.585205,615.983643   C1129.340698,615.747192 1130.219116,615.532410 1130.751953,615.012146   C1137.468872,608.453979 1145.932861,610.118164 1154.010864,610.010193   C1158.291382,609.952942 1162.573120,610.000000 1166.921753,610.000000   C1164.294678,626.380066 1154.227661,634.872742 1138.365601,638.748718   C1128.791138,641.088257 1118.613770,641.875732 1108.724243,641.770081   C1097.268921,641.647705 1085.922363,639.515137 1075.784424,633.343628   C1066.815674,627.883850 1061.696777,619.838013 1060.086548,609.662720   C1059.269531,604.498901 1059.350220,599.193054 1059.195312,593.531128  M1099.623779,590.000000   C1111.561646,590.000000 1123.499512,590.000000 1135.464844,590.000000   C1133.523560,584.404846 1127.729614,581.163086 1119.493774,581.000061   C1100.292358,580.619995 1095.201416,582.248779 1092.174194,590.000000   C1094.410034,590.000000 1096.537964,590.000000 1099.623779,590.000000  z"/>
<path fill="#FFFFFF" opacity="1.000000" stroke="none" d=" M1388.733398,560.110596   C1399.647949,560.013245 1410.135986,560.013245 1420.658081,560.013245   C1429.307617,578.979370 1437.892090,597.802979 1446.789307,617.312317   C1455.031982,598.046265 1463.119141,579.143555 1471.252075,560.134277   C1482.070068,560.134277 1492.872314,560.134277 1504.122925,560.134277   C1487.959106,598.201233 1471.891479,636.041626 1455.848389,673.824585   C1445.154663,673.824585 1434.689819,673.824585 1423.066895,673.824585   C1427.840332,662.429443 1432.385620,651.579102 1437.236084,639.999939   C1433.336304,639.999939 1429.777222,640.135437 1426.238770,639.924255   C1425.047974,639.853149 1423.246582,639.200256 1422.844238,638.308228   C1411.193726,612.472717 1399.685181,586.573303 1388.166992,560.678345   C1388.116455,560.564758 1388.256104,560.366577 1388.733398,560.110596  z"/>
<path fill="#FFFFFF" opacity="1.000000" stroke="none" d=" M1283.000000,626.990601   C1283.000000,631.466553 1283.000000,635.444092 1283.000000,639.709961   C1273.056396,639.709961 1263.319092,639.709961 1253.000000,639.709961   C1253.000000,628.868774 1253.308350,617.929138 1252.863281,607.020203   C1252.656616,601.957031 1251.773682,596.589111 1249.681274,592.059753   C1248.426025,589.342712 1244.499146,586.994629 1241.334229,586.175354   C1227.852173,582.685791 1215.872192,587.020020 1204.956421,594.782288   C1203.715210,595.664917 1203.103394,598.159058 1203.083008,599.916260   C1202.930298,613.062988 1203.000000,626.212280 1203.000000,639.680115   C1193.118286,639.680115 1183.379761,639.680115 1173.000000,639.680115   C1173.000000,626.604370 1173.000000,613.352966 1173.000000,600.101624   C1173.000000,586.951538 1173.000000,573.801392 1173.000000,560.325806   C1182.868042,560.325806 1192.605347,560.325806 1202.698975,560.325806   C1202.698975,563.541992 1202.698975,566.962341 1202.698975,571.254700   C1212.206665,564.120361 1222.627441,560.864990 1233.354736,559.459229   C1246.748901,557.704163 1260.331909,558.158752 1271.821533,566.548828   C1277.667725,570.818054 1281.417603,577.456726 1281.856079,584.783630   C1282.686646,598.659607 1282.666748,612.586426 1283.000000,626.990601  z"/>
<path fill="#FFFFFF" opacity="1.000000" stroke="none" d=" M1332.472168,584.010742   C1328.800171,585.334351 1325.327271,586.236755 1322.413086,588.041199   C1314.173340,593.143005 1314.507935,608.413147 1323.040039,612.928772   C1330.373169,616.809875 1338.381714,617.555420 1346.571899,616.158813   C1349.117920,615.724609 1351.676880,615.358032 1354.237793,615.019531   C1359.729492,614.293762 1363.451416,611.364990 1365.348755,606.183228   C1375.528076,606.183228 1385.660034,606.183228 1395.804565,606.183228   C1394.367798,623.837769 1382.722656,635.899536 1364.320557,638.943604   C1355.823853,640.348999 1347.187256,641.930176 1338.642090,641.784851   C1325.548462,641.562195 1312.592163,639.756653 1301.187256,632.079895   C1293.229858,626.723755 1288.565186,618.953430 1287.407715,610.133667   C1286.217163,601.061401 1285.890625,591.613159 1289.782715,582.551453   C1295.204956,569.927063 1305.657593,563.818848 1317.947388,561.229431   C1336.021362,557.421448 1354.307495,557.202515 1372.072021,563.577759   C1384.378174,567.994080 1392.389893,576.394653 1395.019653,589.486877   C1395.269165,590.728699 1395.747803,591.924561 1396.261475,593.603943   C1385.742676,593.603943 1375.559082,593.603943 1365.379395,593.603943   C1362.206421,586.247437 1355.406372,584.730164 1348.411011,584.091614   C1343.289307,583.624207 1338.090698,584.000916 1332.472168,584.010742  z"/>
<path fill="#08568E" opacity="1.000000" stroke="none" d=" M547.957764,700.768799   C548.195618,699.822388 548.433411,698.875977 548.738037,697.663940   C543.599243,697.663940 538.616882,697.663940 534.595825,697.663940   C535.079651,693.028259 535.935974,688.619324 535.940979,684.209412   C536.023804,610.711426 535.986694,537.213440 536.055725,463.715485   C536.058167,461.163086 536.953979,458.620667 537.282776,456.054321   C537.393433,455.190796 537.313232,454.075439 536.847412,453.402496   C533.923096,449.178009 535.471313,446.385712 540.223083,443.938751   C526.715759,429.725861 513.359924,415.672363 499.292877,400.870483   C499.166595,403.269409 499.016144,404.802643 499.015472,406.335968   C499.003082,434.168549 499.009460,462.001129 499.010193,489.833710   C499.010376,496.958801 499.007751,496.958801 490.950623,497.021149   C476.357391,497.025238 462.670776,497.026825 448.517090,497.021545   C439.916809,496.989014 431.783630,496.963348 423.770081,496.530640   C425.405426,495.795349 426.914612,495.222717 428.437988,495.182220   C434.326019,495.025757 440.218597,495.039032 446.109467,494.989075   C461.175964,495.032166 476.245148,494.928436 491.307312,495.206177   C495.937317,495.291534 497.347809,493.758972 497.317017,489.169037   C497.129242,461.170959 497.198883,433.171112 497.183014,405.171875   C497.181671,402.843414 497.182861,400.514954 497.182861,396.541168   C501.043579,399.766754 504.173767,402.030029 506.890778,404.711914   C519.807190,417.461395 532.644409,430.291870 545.433960,443.168793   C549.043152,446.802673 552.491211,450.610718 555.798706,454.520325   C556.622620,455.494232 556.938538,457.173492 556.939209,458.528809   C556.978699,535.360046 556.960144,612.191345 556.548889,689.606140   C555.779114,691.542603 555.136047,692.884949 555.082214,694.250427   C554.811707,701.117493 554.865723,701.119629 547.957764,700.768799  z"/>
<path fill="#FFFFFF" opacity="1.000000" stroke="none" d=" M1249.727051,468.998901   C1251.261230,468.700378 1252.338257,468.402863 1253.708740,468.024353   C1253.708740,476.175415 1253.708740,484.247986 1253.708740,492.834229   C1238.063477,494.546478 1222.333252,496.947357 1206.517822,492.144836   C1195.331299,488.747833 1190.173340,480.213959 1190.032104,469.996582   C1189.887451,459.527008 1190.000000,449.053833 1190.000000,438.186981   C1184.397339,438.186981 1178.986816,438.186981 1173.291504,438.186981   C1173.291504,429.729828 1173.291504,421.660248 1173.291504,413.190216   C1178.597778,413.190216 1184.008057,413.190216 1190.000488,413.190216   C1190.000488,409.053467 1189.752686,405.262756 1190.137939,401.537537   C1190.268555,400.273468 1191.798584,398.453552 1193.026733,398.115906   C1201.869751,395.684631 1210.799683,393.569092 1220.047241,391.267548   C1220.047241,398.454407 1220.047241,405.526947 1220.047241,412.982849   C1231.446289,412.982849 1242.518433,412.982849 1253.790894,412.982849   C1253.790894,421.442108 1253.790894,429.509674 1253.790894,437.970428   C1242.565918,437.970428 1231.494141,437.970428 1219.537842,437.970428   C1220.041382,446.393219 1220.296753,454.410156 1221.091797,462.373230   C1221.484741,466.309326 1224.220703,468.855408 1228.341553,468.956055   C1235.313965,469.126373 1242.293457,469.000946 1249.727051,468.998901  z"/>
<path fill="#0D94C7" opacity="1.000000" stroke="none" d=" M546.923340,399.045166   C546.647522,398.865173 546.371765,398.685181 546.285645,398.070312   C545.516602,397.030792 544.557800,396.426147 543.598999,395.821472   C543.598999,395.821472 543.329407,395.668182 543.489441,395.215881   C540.621216,391.297668 537.606873,387.819153 534.512390,384.413422   C534.392151,384.281158 533.502991,384.847595 532.972168,385.088470   C521.709717,373.938934 510.447266,362.789368 499.322937,351.124695   C500.813660,349.964813 502.135040,348.847778 503.524200,348.755951   C510.012817,348.327209 516.520142,348.181274 523.020752,347.934265   C523.760986,347.972473 524.501282,348.010681 525.829956,348.278198   C527.949524,348.324524 529.480652,348.141571 531.011780,347.958618   C532.393799,347.993591 533.775879,348.028564 535.847351,348.320679   C540.365173,348.370850 544.193481,348.163879 548.021851,347.956909   C549.407166,348.006500 550.792480,348.056091 552.746948,348.391235   C555.648865,348.794952 557.980652,348.946136 560.314758,349.025604   C570.209473,349.362396 580.104858,349.677887 589.946655,350.416473   C589.595581,358.739136 588.799744,366.666870 589.122620,374.548828   C589.552673,385.049408 586.523132,395.925690 591.557678,405.979797   C589.418579,405.982605 587.707214,405.980530 585.700195,405.685242   C578.270996,405.597504 571.137329,405.802948 563.595215,406.010681   C561.110107,406.350342 559.033447,406.687683 556.956787,407.025024   C556.956787,407.025024 556.485840,406.909210 556.127014,406.664124   C555.552002,406.207153 555.297546,406.062592 554.969666,405.632355   C552.819763,402.487183 551.849060,398.224976 546.923340,399.045166  z"/>
<path fill="#FFFFFF" opacity="1.000000" stroke="none" d=" M1401.000000,425.000000   C1401.000000,447.807617 1401.000000,470.115234 1401.000000,492.711060   C1391.052612,492.711060 1381.313965,492.711060 1371.286377,492.711060   C1371.286377,457.380341 1371.286377,421.979492 1371.286377,386.288940   C1380.947266,386.288940 1390.685913,386.288940 1401.000000,386.288940   C1401.000000,398.974701 1401.000000,411.737366 1401.000000,425.000000  z"/>
<path fill="#FFFFFF" opacity="1.000000" stroke="none" d=" M997.037598,413.000000   C1004.173828,413.000000 1010.814209,413.000000 1017.725891,413.000000   C1017.725891,439.645111 1017.725891,466.046997 1017.725891,492.724915   C1008.024109,492.724915 998.285950,492.724915 988.272705,492.724915   C988.272705,466.352020 988.272705,439.950165 988.272705,413.000000   C990.996094,413.000000 993.768860,413.000000 997.037598,413.000000  z"/>
<path fill="#FFFFFF" opacity="1.000000" stroke="none" d=" M1168.000000,489.833801   C1168.488770,493.199158 1166.615356,493.029663 1164.669678,493.019531   C1156.010132,492.974304 1147.350220,492.999908 1138.345459,492.999908   C1138.345459,466.497528 1138.345459,440.092712 1138.345459,413.343567   C1147.834473,413.343567 1157.576050,413.343567 1168.000000,413.343567   C1168.000000,438.520966 1168.000000,463.934631 1168.000000,489.833801  z"/>
<path fill="#0D8EC1" opacity="1.000000" stroke="none" d=" M327.435486,495.424683   C336.427124,495.596924 345.418732,495.769196 355.233429,496.270050   C357.370392,496.732971 358.684326,496.867279 360.062561,497.364563   C366.157104,499.669312 366.281494,504.274841 366.104858,509.601685   C365.754272,520.174377 366.033813,530.766968 365.985382,541.351074   C365.965698,545.651123 367.463470,550.646851 361.370514,552.501587   C361.119507,552.578003 361.096771,553.404358 360.501770,553.905701   C349.017090,553.920715 337.998291,553.911377 326.977081,553.552246   C326.664612,551.616272 325.951569,549.983887 326.126892,548.453430   C326.513550,545.079102 327.909515,541.753662 327.895233,538.412537   C327.851501,528.189758 327.375580,517.967468 326.991241,507.747833   C326.705597,500.152313 326.529663,500.035339 318.998840,499.669373   C319.003876,498.906738 319.006470,498.470947 319.341644,497.880005   C321.454163,497.158508 323.234070,496.592133 325.433289,495.994934   C326.380249,495.784271 326.907867,495.604462 327.435486,495.424683  z"/>
<path fill="#78787C" opacity="1.000000" stroke="none" d=" M267.985168,500.959595   C267.786987,501.233337 267.588806,501.507080 266.945496,501.954651   C266.222809,502.285797 266.064575,502.522827 266.025665,502.839508   C266.025665,502.839508 265.969543,502.955597 265.573303,502.946686   C264.429565,502.302338 263.682129,501.666870 262.955383,500.561218   C262.976105,450.863342 262.976105,401.635651 262.976105,352.033051   C267.228363,354.746094 270.588196,356.889740 273.948029,359.033386   C273.948029,359.033386 273.962189,358.993835 273.955994,359.345764   C274.312622,360.785858 274.675385,361.874084 275.023743,363.434845   C275.006195,401.167480 274.966614,438.427643 275.045197,475.687531   C275.055267,480.466095 275.679993,485.243378 275.870972,490.318970   C273.143036,494.064301 270.564117,497.511963 267.985168,500.959595  z"/>
<path fill="#01437E" opacity="1.000000" stroke="none" d=" M742.250244,579.261230   C738.612366,578.074158 737.722229,575.356934 740.595947,573.361511   C743.964294,571.022766 747.758545,569.297485 751.690063,567.162842   C760.449097,563.267456 767.590027,557.787537 773.722900,550.911255   C777.813293,546.325012 782.472046,542.177673 786.104004,537.263123   C797.756165,521.496094 806.528259,504.347321 808.984192,484.567657   C810.792542,470.003448 810.956909,455.415741 807.986145,440.969788   C805.260925,427.718262 799.578308,415.611755 792.661377,404.087524   C783.183960,388.297333 770.037537,376.133392 753.963379,366.097412   C742.645203,359.352509 731.382080,354.306396 718.563477,352.028687   C703.765320,351.315887 689.391235,350.632751 674.546753,349.942841   C661.725708,349.932892 649.375061,349.929749 636.554382,349.913300   C621.400574,349.571228 606.716797,349.242493 591.933472,348.661133   C591.551941,347.944458 591.270081,347.480408 590.988159,347.016357   C595.026978,346.970978 599.065735,346.925568 603.794800,347.263550   C606.975464,347.452606 609.465881,347.258270 611.956299,347.063904   C612.419250,347.020599 612.882141,346.977264 613.753662,347.176270   C614.425171,347.309784 614.688110,347.200989 614.951111,347.092224   C615.138428,347.061951 615.325684,347.031677 616.035400,347.330505   C618.692810,347.456451 620.827881,347.253326 622.962952,347.050171   C632.354370,347.016663 641.745789,346.983124 651.887207,347.316193   C660.400757,347.493622 668.164185,347.304474 675.927673,347.115326   C692.201538,348.549866 708.661133,345.972382 724.839233,350.692963   C740.699890,355.320953 755.091858,362.297729 768.038513,372.485840   C779.581360,381.569336 788.924744,392.681366 796.489868,405.061310   C805.381653,419.612030 810.584167,435.492310 812.184509,452.756348   C813.482056,466.753845 813.108337,480.463898 809.848267,494.008698   C805.578369,511.749176 798.199341,528.160522 785.680908,541.688354   C778.662048,549.273071 771.165161,556.525879 763.176086,563.063538   C757.784973,567.475159 751.364075,570.822632 744.994568,573.757874   C742.049194,575.115173 741.259216,576.171204 742.250244,579.261230  z"/>
<path fill="#616163" opacity="1.000000" stroke="none" d=" M292.937622,378.040741   C293.255554,378.155792 293.519135,378.346130 293.875427,379.139618   C294.358246,380.435547 294.694031,381.203552 295.028564,382.397400   C295.351532,385.772430 295.948090,388.720734 295.957428,391.670868   C296.040070,417.789246 296.018524,443.907898 295.871155,470.326050   C292.797607,473.747070 289.880737,476.868561 286.711517,480.101990   C285.975739,480.479034 285.492310,480.744141 285.015137,480.585083   C285.347626,477.212341 285.951508,474.264313 285.957458,471.315094   C286.023376,438.545563 285.996735,405.775787 286.291077,373.145874   C287.725494,373.857086 288.863953,374.428558 290.010010,375.367737   C290.990906,376.503937 291.964264,377.272339 292.937622,378.040741  z"/>
<path fill="#3F4042" opacity="1.000000" stroke="none" d=" M295.029785,381.971558   C294.694031,381.203552 294.358246,380.435547 293.998810,379.352905   C294.861511,379.396454 295.953156,379.536072 296.602814,380.146271   C304.084106,387.173248 311.651550,394.121979 318.819916,401.459076   C320.552032,403.231995 321.694000,406.331146 321.758881,408.855011   C322.058411,420.512573 321.996887,432.184631 321.768860,443.845673   C321.728333,445.919128 320.821716,448.483795 319.407501,449.940826   C309.318939,460.334900 298.994934,470.500488 288.204407,480.783569   C287.429962,480.548920 287.196930,480.269470 286.963867,479.990051   C289.880737,476.868561 292.797607,473.747070 296.169464,470.176758   C304.940613,462.107422 310.818756,454.020386 309.320892,441.341309   C307.885376,429.189819 309.089417,416.734985 308.972015,404.415039   C308.924683,399.444336 308.311127,394.442200 304.596954,390.667755   C301.578918,387.600769 298.231232,384.858093 295.029785,381.971558  z"/>
<path fill="#01437E" opacity="1.000000" stroke="none" d=" M749.020020,594.992676   C746.732849,590.152161 744.445679,585.311707 742.285767,580.092957   C743.647644,581.158569 745.150940,582.449341 746.074524,584.070435   C753.477234,597.063416 760.764099,610.122437 768.098999,623.154175   C775.469910,636.249939 782.776672,649.382690 790.258545,662.414856   C796.561646,673.393799 803.137695,684.216064 809.435791,695.197754   C810.509277,697.069641 810.792053,699.394958 811.440186,701.510864   C809.429688,701.947266 807.421997,702.747131 805.408203,702.763123   C788.098816,702.900818 770.773499,702.495789 753.485107,703.129028   C746.367310,703.389832 742.273193,700.987793 738.948181,694.999512   C729.949829,678.793823 720.549377,662.811523 711.335632,646.724976   C709.465698,643.460205 707.715149,640.126953 705.881348,636.461365   C707.046448,637.055969 708.627136,637.780029 709.371582,639.010254   C715.159058,648.573120 720.840454,658.201599 726.444031,667.873840   C730.897644,675.561279 735.712219,683.100708 739.421021,691.141968   C743.376526,699.718079 749.944946,701.093933 759.007324,700.016724   C775.456177,700.018860 790.973267,700.018860 807.353027,700.018860   C806.153381,697.383118 805.531677,695.724121 804.678345,694.194336   C801.513306,688.520264 798.145508,682.956238 795.086365,677.226746   C789.284668,666.360413 783.841125,655.299072 777.881897,644.521606   C771.411133,632.819092 764.539124,621.338074 757.808228,609.780090   C754.922791,604.825378 751.952026,599.920288 749.020020,594.992676  z"/>
<path fill="#FFFFFF" opacity="1.000000" stroke="none" d=" M1168.000000,401.914337   C1168.000000,404.054840 1168.000000,405.707550 1168.000000,407.679810   C1158.115845,407.679810 1148.377075,407.679810 1138.317871,407.679810   C1138.317871,400.782104 1138.317871,393.708099 1138.317871,386.315369   C1147.891846,386.315369 1157.631104,386.315369 1168.000000,386.315369   C1168.000000,391.244415 1168.000000,396.335480 1168.000000,401.914337  z"/>
<path fill="#FFFFFF" opacity="1.000000" stroke="none" d=" M1005.986938,386.000000   C1010.128723,386.000000 1013.773987,386.000000 1017.707947,386.000000   C1017.707947,393.271240 1017.707947,400.343231 1017.707947,407.709137   C1008.058411,407.709137 998.321350,407.709137 988.290894,407.709137   C988.290894,400.726410 988.290894,393.654449 988.290894,386.000000   C993.965576,386.000000 999.727905,386.000000 1005.986938,386.000000  z"/>
<path fill="#0A83B7" opacity="1.000000" stroke="none" d=" M322.061371,556.106323   C322.037140,602.542969 322.009735,648.979553 321.991882,695.416199   C321.989014,702.919434 322.008698,702.949524 314.768738,702.962585   C299.123383,702.990906 283.477905,703.004333 267.832611,702.967041   C266.040771,702.962769 264.249786,702.597168 262.230896,701.822754   C262.335876,700.825989 262.668335,700.405640 263.422577,700.011108   C274.553436,700.324402 285.262543,700.611938 296.422607,700.923828   C302.324707,700.634338 307.788422,699.942017 313.222961,700.123657   C317.732635,700.274353 319.133698,699.035522 319.114594,694.336426   C318.932526,649.567078 319.005188,604.796692 319.007690,560.026611   C319.007782,558.529236 318.706665,556.912231 319.185028,555.580566   C319.460083,554.814880 321.021851,554.511475 322.007141,554.351257   C322.027039,555.170471 322.044189,555.638367 322.061371,556.106323  z"/>
<path fill="#616163" opacity="1.000000" stroke="none" d=" M273.860992,358.709503   C270.588196,356.889740 267.228363,354.746094 262.976105,352.033051   C262.976105,401.635651 262.976105,450.863342 262.657959,500.551331   C261.941956,501.000183 261.544037,500.988708 261.146149,500.977234   C260.990021,450.128235 260.728607,399.278046 261.251984,348.436707   C262.168365,348.057098 263.084778,347.677490 264.001160,347.297882   C267.258759,350.993774 270.516357,354.689667 273.860992,358.709503  z"/>
<path fill="#0D8EC1" opacity="1.000000" stroke="none" d=" M263.000824,699.985291   C262.668335,700.405640 262.335876,700.825989 261.923828,701.513184   C261.563965,698.914429 261.074188,696.051147 261.042572,693.182800   C260.945984,684.417969 261.025665,675.651245 261.364685,666.110840   C261.798248,664.687988 261.995880,664.039612 261.996277,663.391174   C262.010498,638.518188 262.019196,613.645142 261.968292,588.772217   C261.965759,587.529602 261.425232,586.288086 261.135193,585.046021   C261.093018,576.220947 260.840118,567.388489 261.148315,558.575684   C261.231384,556.200317 262.597473,553.554077 264.119202,551.617188   C266.530975,548.547485 269.570007,545.970581 272.664490,543.390991   C272.991211,544.070984 272.997040,544.545166 272.857666,545.317505   C264.191101,551.902344 262.847412,560.744812 262.901245,570.630371   C263.136078,613.747559 263.001343,656.866821 263.000824,699.985291  z"/>
<path fill="#096197" opacity="1.000000" stroke="none" d=" M322.524261,556.068054   C322.044189,555.638367 322.027039,555.170471 322.422180,554.349121   C324.216156,553.964478 325.597839,553.933289 326.979523,553.902100   C337.998291,553.911377 349.017090,553.920715 360.972534,553.943604   C375.273834,553.638916 388.638458,553.320679 402.471375,553.007812   C404.932281,553.013672 406.930908,552.914368 408.916260,553.034607   C413.622162,553.319702 418.321747,553.708923 423.027283,554.365906   C422.997681,555.086975 422.964752,555.498230 422.931824,555.909424   C389.616943,555.949524 356.302063,555.989624 322.524261,556.068054  z"/>
<path fill="#002D66" opacity="1.000000" stroke="none" d=" M547.495483,700.825073   C554.865723,701.119629 554.811707,701.117493 555.082214,694.250427   C555.136047,692.884949 555.779114,691.542603 556.523682,690.071167   C556.947388,691.374268 556.997925,692.795837 556.720703,694.853271   C556.566589,696.965027 556.740234,698.440979 556.913818,699.916992   C555.543701,700.929504 554.184387,702.806030 552.801880,702.823303   C535.739563,703.036316 518.673706,703.018066 501.609100,702.959534   C497.596344,702.945801 495.509644,700.023071 496.200134,696.143433   C496.626953,693.745117 496.738068,691.290710 496.992493,687.949097   C497.037781,672.636047 497.081512,658.235474 497.125275,643.834839   C497.431213,645.576782 497.986481,647.316467 498.001740,649.060974   C498.087158,658.854675 497.933777,668.651062 498.080688,678.443298   C498.177368,684.888428 498.777191,691.325562 498.891449,697.770935   C498.957794,701.514282 501.443085,700.970642 503.705994,700.968567   C518.148376,700.955200 532.590759,700.913635 547.495483,700.825073  z"/>
<path fill="#002D66" opacity="1.000000" stroke="none" d=" M423.289062,555.973145   C422.964752,555.498230 422.997681,555.086975 423.493195,554.363403   C431.963470,554.002991 439.971222,553.955017 448.447083,553.951538   C464.270844,553.954224 479.626526,553.912476 494.982178,553.870728   C497.878113,553.910828 499.116943,555.349304 498.942139,558.257568   C498.498413,565.638977 498.147858,573.026001 497.527832,580.734680   C497.202515,574.405029 496.914246,567.746277 497.089142,561.099731   C497.194489,557.095642 495.639191,555.940308 491.801697,555.963196   C470.150085,556.092407 448.497314,556.024414 426.310211,555.799255   C425.545624,555.686401 425.315765,555.798035 425.085938,555.909668   C424.606079,555.952087 424.126190,555.994507 423.289062,555.973145  z"/>
<path fill="#0A83B7" opacity="1.000000" stroke="none" d=" M273.002899,545.019348   C272.997040,544.545166 272.991211,544.070984 272.975311,543.241333   C279.723083,535.760437 286.398438,528.554443 293.259949,521.530334   C301.556946,513.036621 310.011536,504.696869 318.694244,496.486145   C318.996704,497.132904 319.002869,497.584015 319.009033,498.035156   C319.006470,498.470947 319.003876,498.906738 318.700623,499.816071   C309.262665,509.522675 300.125427,518.755737 290.717163,528.182312   C284.631775,533.923706 278.817352,539.471558 273.002899,545.019348  z"/>
<path fill="#0972A8" opacity="1.000000" stroke="none" d=" M590.520630,347.004456   C591.270081,347.480408 591.551941,347.944458 591.769592,348.922577   C591.136841,349.624817 590.568420,349.812988 590.000000,350.001160   C580.104858,349.677887 570.209473,349.362396 560.314758,349.025604   C557.980652,348.946136 555.648865,348.794952 553.161865,348.353699   C554.334045,347.682098 555.658264,347.040771 556.987000,347.031250   C568.008606,346.952301 579.030945,346.990082 590.520630,347.004456  z"/>
<path fill="#085F95" opacity="1.000000" stroke="none" d=" M359.998230,497.001648   C358.684326,496.867279 357.370392,496.732971 355.637207,496.280365   C358.135529,495.385712 361.053131,494.809296 364.751678,494.508118   C378.005035,494.868164 390.477478,494.952972 402.968628,495.353333   C402.997070,496.090576 403.006836,496.512268 402.546570,496.958557   C388.050446,496.989349 374.024323,496.995483 359.998230,497.001648  z"/>
<path fill="#0F9DD2" opacity="1.000000" stroke="none" d=" M261.071350,585.507568   C261.425232,586.288086 261.965759,587.529602 261.968292,588.772217   C262.019196,613.645142 262.010498,638.518188 261.996277,663.391174   C261.995880,664.039612 261.798248,664.687988 261.417053,665.641418   C261.096832,639.287354 261.052155,612.628174 261.071350,585.507568  z"/>
<path fill="#0F9DD2" opacity="1.000000" stroke="none" d=" M445.930359,494.576813   C440.218597,495.039032 434.326019,495.025757 428.437988,495.182220   C426.914612,495.222717 425.405426,495.795349 423.346527,496.503479   C418.617889,496.910431 414.432465,496.937531 410.248962,496.597778   C410.163269,495.507141 410.075623,494.783386 409.987976,494.059631   C421.909058,494.094604 433.830170,494.129578 445.930359,494.576813  z"/>
<path fill="#555556" opacity="1.000000" stroke="none" d=" M286.711548,480.101990   C287.196930,480.269470 287.429962,480.548920 287.917053,480.940552   C281.655609,487.623749 275.140137,494.194733 268.304932,500.862671   C270.564117,497.511963 273.143036,494.064301 276.168457,490.171814   C279.412872,486.821075 282.210876,483.915161 285.008850,481.009277   C285.492310,480.744141 285.975739,480.479034 286.711548,480.101990  z"/>
<path fill="#0972A8" opacity="1.000000" stroke="none" d=" M522.779419,347.578339   C516.520142,348.181274 510.012817,348.327209 503.524200,348.755951   C502.135040,348.847778 500.813660,349.964813 499.167450,350.825378   C498.348450,350.166046 497.823029,349.290863 497.297607,348.415710   C498.272675,347.981110 499.244293,347.179535 500.223358,347.170319   C507.660767,347.100403 515.099670,347.185547 522.779419,347.578339  z"/>
<path fill="#0972A8" opacity="1.000000" stroke="none" d=" M557.148682,407.369080   C559.033447,406.687683 561.110107,406.350342 564.059265,406.014221   C569.963074,406.651550 574.994324,407.287628 579.587891,407.947327   C577.105652,407.986450 575.061096,408.001984 572.659180,408.010773   C571.218811,408.287659 570.135803,408.571289 569.052795,408.854919   C565.148743,408.474335 561.244690,408.093719 557.148682,407.369080  z"/>
<path fill="#0000FF" opacity="1.000000" stroke="none" d=" M497.085632,643.672668   C497.081512,658.235474 497.037781,672.636047 496.980469,687.503601   C496.652252,687.466125 496.062225,686.961243 496.063049,686.457336   C496.086639,672.118042 496.169739,657.778870 496.655701,643.308533   C497.068268,643.177429 497.046051,643.510498 497.085632,643.672668  z"/>
<path fill="#0000FF" opacity="1.000000" stroke="none" d=" M402.949921,495.037781   C390.477478,494.952972 378.005035,494.868164 365.185974,494.530701   C377.334961,494.204529 389.830566,494.131012 402.692688,494.363098   C403.059143,494.668701 402.949921,495.037781 402.949921,495.037781  z"/>
<path fill="#002D66" opacity="1.000000" stroke="none" d=" M497.170593,610.394775   C497.529205,615.645081 497.902832,621.354065 498.003357,627.067871   C498.087280,631.836914 497.851257,636.611572 497.518799,641.721619   C497.209503,631.658142 497.138397,621.256897 497.170593,610.394775  z"/>
<path fill="#0972A8" opacity="1.000000" stroke="none" d=" M585.995789,405.978455   C587.707214,405.980530 589.418579,405.982605 591.979919,405.991028   C594.239685,406.027130 595.649597,406.056915 597.059448,406.086700   C597.036621,406.776306 597.013733,407.465942 596.979248,408.500092   C594.597717,408.880676 592.227905,408.916748 589.131775,408.644470   C586.594604,408.197784 584.783691,408.059448 583.169922,407.681274   C584.243286,406.953766 585.119507,406.466095 585.995789,405.978455  z"/>
<path fill="#0C7CB2" opacity="1.000000" stroke="none" d=" M533.098267,385.394653   C533.502991,384.847595 534.392151,384.281158 534.512390,384.413422   C537.606873,387.819153 540.621216,391.297668 543.416931,395.078796   C539.864319,392.162964 536.544312,388.931915 533.098267,385.394653  z"/>
<path fill="#555556" opacity="1.000000" stroke="none" d=" M275.038177,362.962280   C274.675385,361.874084 274.312622,360.785858 273.976929,359.347778   C277.252655,362.115326 280.501312,365.232788 283.821594,368.730255   C283.893219,369.110260 283.769135,369.238281 283.427490,369.159088   C280.403290,367.040710 277.720734,365.001495 275.038177,362.962280  z"/>
<path fill="#0000FF" opacity="1.000000" stroke="none" d=" M496.654968,582.314758   C497.067688,582.186951 497.046356,582.537231 497.037079,583.191406   C497.058960,591.934753 497.090118,600.023987 497.121277,608.113159   C497.121277,608.113159 497.052765,608.468079 497.061523,608.648193   C496.714417,608.054382 496.050018,607.280334 496.050262,606.506531   C496.052765,598.485229 496.162384,590.463867 496.654968,582.314758  z"/>
<path fill="#0972A8" opacity="1.000000" stroke="none" d=" M547.804443,347.590454   C544.193481,348.163879 540.365173,348.370850 536.259521,348.269928   C539.850464,347.716034 543.718750,347.470032 547.804443,347.590454  z"/>
<path fill="#0972A8" opacity="1.000000" stroke="none" d=" M675.466064,347.069672   C668.164185,347.304474 660.400757,347.493622 652.356812,347.382080   C659.719055,347.062256 667.361755,347.043152 675.466064,347.069672  z"/>
<path fill="#0C7CB2" opacity="1.000000" stroke="none" d=" M547.045776,399.356812   C551.849060,398.224976 552.819763,402.487183 554.966187,405.846436   C554.997925,406.413544 554.987366,406.841309 554.987366,406.841309   C552.381042,404.450348 549.774658,402.059387 547.045776,399.356812  z"/>
<path fill="#08568E" opacity="1.000000" stroke="none" d=" M402.968628,495.353333   C402.949921,495.037781 403.059143,494.668701 403.159088,494.504425   C405.216400,494.237610 407.173767,494.135040 409.559570,494.046051   C410.075623,494.783386 410.163269,495.507141 409.934784,496.608185   C409.411407,496.995331 409.204193,497.005157 408.569580,497.006165   C406.433685,496.976196 404.725128,496.955078 403.016571,496.933929   C403.006836,496.512268 402.997070,496.090576 402.968628,495.353333  z"/>
<path fill="#555556" opacity="1.000000" stroke="none" d=" M290.002441,375.000000   C288.863953,374.428558 287.725494,373.857086 286.152435,372.858887   C285.068298,371.367523 284.418701,370.302917 283.769135,369.238281   C283.769135,369.238281 283.893219,369.110260 283.955383,369.046265   C286.272247,370.767242 288.526947,372.552246 290.627808,374.676605   C290.473907,375.015991 290.002441,375.000000 290.002441,375.000000  z"/>
<path fill="#085F95" opacity="1.000000" stroke="none" d=" M582.972778,407.921112   C584.783691,408.059448 586.594604,408.197784 588.690308,408.586243   C583.950439,408.884277 578.925781,408.932251 573.451660,408.711914   C573.002258,408.443573 573.016541,408.017517 573.016541,408.017517   C575.061096,408.001984 577.105652,407.986450 579.956177,407.959808   C581.499023,407.939484 582.235901,407.930298 582.972778,407.921112  z"/>
<path fill="#555556" opacity="1.000000" stroke="none" d=" M261.093750,501.365509   C261.544037,500.988708 261.941956,501.000183 262.637268,501.021545   C263.682129,501.666870 264.429565,502.302338 265.513855,502.971741   C264.992157,503.979492 264.133575,504.953217 263.274994,505.926941   C262.530457,504.535889 261.785919,503.144836 261.093750,501.365509  z"/>
<path fill="#0972A8" opacity="1.000000" stroke="none" d=" M319.341644,497.880005   C319.002869,497.584015 318.996704,497.132904 318.995239,496.343811   C320.723236,495.685913 322.446472,495.365967 324.584381,495.315857   C324.999023,495.585693 325.014008,496.025787 325.014008,496.025757   C323.234070,496.592133 321.454163,497.158508 319.341644,497.880005  z"/>
<path fill="#0972A8" opacity="1.000000" stroke="none" d=" M530.833618,347.637970   C529.480652,348.141571 527.949524,348.324524 526.197388,348.222229   C527.536011,347.730408 529.095764,347.523865 530.833618,347.637970  z"/>
<path fill="#0972A8" opacity="1.000000" stroke="none" d=" M611.517212,347.027954   C609.465881,347.258270 606.975464,347.452606 604.256348,347.327271   C606.377808,347.002411 608.727966,346.997192 611.517212,347.027954  z"/>
<path fill="#0972A8" opacity="1.000000" stroke="none" d=" M622.533081,347.011292   C620.827881,347.253326 618.692810,347.456451 616.316772,347.373230   C618.084900,347.048737 620.094055,347.010590 622.533081,347.011292  z"/>
<path fill="#3F4042" opacity="1.000000" stroke="none" d=" M290.010010,375.367737   C290.002441,375.000000 290.473907,375.015991 290.709106,375.000244   C291.608459,375.782806 292.272614,376.581116 292.937195,377.710083   C291.964264,377.272339 290.990906,376.503937 290.010010,375.367737  z"/>
<path fill="#0C7CB2" opacity="1.000000" stroke="none" d=" M543.732483,396.050049   C544.557800,396.426147 545.516602,397.030792 546.207520,397.828979   C545.248352,397.441223 544.557190,396.859894 543.732483,396.050049  z"/>
<path fill="#08568E" opacity="1.000000" stroke="none" d=" M556.944336,699.513855   C556.740234,698.440979 556.566589,696.965027 556.662720,695.276489   C556.946594,696.412903 556.960693,697.761841 556.944336,699.513855  z"/>
<path fill="#0C7CB2" opacity="1.000000" stroke="none" d=" M572.659180,408.010773   C573.016541,408.017517 573.002258,408.443573 572.985840,408.656067   C571.922302,408.909851 570.875122,408.951202 569.440430,408.923737   C570.135803,408.571289 571.218811,408.287659 572.659180,408.010773  z"/>
<path fill="#085F95" opacity="1.000000" stroke="none" d=" M325.433289,495.994934   C325.014008,496.025787 324.999023,495.585693 324.986389,495.365967   C325.608093,495.136688 326.242462,495.127167 327.156158,495.271179   C326.907867,495.604462 326.380249,495.784271 325.433289,495.994934  z"/>
<path fill="#0972A8" opacity="1.000000" stroke="none" d=" M614.722351,347.062073   C614.688110,347.200989 614.425171,347.309784 614.097717,347.241516   C614.033264,347.064514 614.493591,347.031891 614.722351,347.062073  z"/>
<path fill="#096197" opacity="1.000000" stroke="none" d=" M425.290710,555.919189   C425.315765,555.798035 425.545624,555.686401 425.839539,555.732239   C425.903595,555.889648 425.495453,555.928711 425.290710,555.919189  z"/>
<path fill="#0972A8" opacity="1.000000" stroke="none" d=" M555.247925,406.886902   C554.987366,406.841309 554.997925,406.413544 555.001404,406.199463   C555.297546,406.062592 555.552002,406.207153 555.892456,406.602264   C555.847412,406.834473 555.677979,406.883484 555.247925,406.886902  z"/>
<path fill="#555556" opacity="1.000000" stroke="none" d=" M266.260315,502.815125   C266.064575,502.522827 266.222809,502.285797 266.710327,502.060364   C266.939087,502.344086 266.797302,502.610229 266.260315,502.815125  z"/>
<path fill="#096BA1" opacity="1.000000" stroke="none" d=" M495.041656,553.552490   C479.626526,553.912476 464.270844,553.954224 448.459839,553.588867   C451.728333,548.346130 452.313690,542.832886 452.080872,536.909302   C451.762024,528.797485 452.031158,520.663574 451.990601,512.539429   C451.963867,507.189301 452.874695,501.637573 448.984131,497.028381   C462.670776,497.026825 476.357391,497.025238 490.510071,497.031799   C494.585205,501.545502 494.068237,506.857544 494.023499,512.121765   C493.944183,521.446838 493.809601,530.779175 494.104858,540.095520   C494.208679,543.371643 495.652191,546.586792 496.172852,549.878967   C496.336700,550.915039 495.486938,552.111328 495.041656,553.552490  z"/>
<path fill="#002D66" opacity="1.000000" stroke="none" d=" M497.400330,607.789795   C497.090118,600.023987 497.058960,591.934753 497.070129,583.363708   C497.301453,591.076721 497.490417,599.271606 497.400330,607.789795  z"/>
<path fill="#0B76AB" opacity="1.000000" stroke="none" d=" M701.719116,526.702820   C702.676147,534.980957 703.771606,542.968262 703.910339,550.972046   C704.204468,567.941956 703.956604,584.920715 704.039246,601.895325   C704.054443,605.017639 704.876953,608.148010 704.765625,611.254578   C704.693237,613.273193 703.598633,615.253723 702.971802,617.254333   C702.447876,618.926270 701.938171,620.602539 701.277954,622.744873   C697.062744,615.937805 692.848694,609.430115 688.933350,602.747375   C681.011475,589.226135 673.285828,575.590088 665.413391,562.039734   C659.847229,552.458984 654.172913,542.941040 648.272278,533.199951   C647.006470,530.994385 646.015320,528.983948 644.583740,526.080078   C653.797485,526.080078 662.038452,526.080444 670.279358,526.079956   C678.184570,526.079468 686.089844,526.051331 693.994873,526.092896   C696.471741,526.105896 698.947632,526.305298 701.719116,526.702820  z"/>
<path fill="#0D87BB" opacity="1.000000" stroke="none" d=" M597.426453,406.070587   C595.649597,406.056915 594.239685,406.027130 592.407593,405.986145   C586.523132,395.925690 589.552673,385.049408 589.122620,374.548828   C588.799744,366.666870 589.595581,358.739136 589.946655,350.416443   C590.568420,349.812988 591.136841,349.624817 591.869141,349.175171   C606.716797,349.242493 621.400574,349.571228 636.545471,350.389954   C637.004395,367.043304 636.807129,383.210419 637.119690,399.367676   C637.212708,404.175049 635.588013,405.243896 631.162231,405.090240   C622.341370,404.784088 613.501831,404.953033 604.671326,405.049652   C603.111572,405.066742 601.558472,405.686188 600.002258,406.027435   C599.265991,406.036469 598.529724,406.045471 597.426453,406.070587  z"/>
<path fill="#0972A8" opacity="1.000000" stroke="none" d=" M675.017090,349.949615   C689.391235,350.632751 703.765320,351.315887 718.567139,352.441833   C719.113953,355.072540 718.258484,357.617065 721.601318,358.444061   C722.476685,358.660675 723.092590,359.926147 723.827637,360.709930   C722.890686,361.466583 722.028564,362.357452 720.992126,362.936218   C720.204468,363.376099 719.195129,363.419189 717.702576,363.779144   C719.625854,379.635925 714.525879,395.811981 721.996033,411.017120   C721.002136,410.957703 719.876587,411.183899 719.034180,410.795685   C707.797424,405.617462 695.825623,405.983521 683.893555,406.001312   C677.574646,406.010712 671.255737,406.004333 664.758179,405.706421   C668.180359,405.165283 671.781311,404.922821 674.777466,404.721069   C673.772827,386.282867 673.143250,368.124207 675.017090,349.949615  z"/>
<path fill="#0C7CB2" opacity="1.000000" stroke="none" d=" M674.546753,349.942841   C673.143250,368.124207 673.772827,386.282867 674.777466,404.721069   C671.781311,404.922821 668.180359,405.165283 664.289429,405.700928   C662.933044,405.996033 661.866699,405.997986 660.216675,405.748779   C658.755615,405.666595 657.878174,405.835510 657.000793,406.004456   C638.313721,406.014557 619.626648,406.024628 600.470947,406.031067   C601.558472,405.686188 603.111572,405.066742 604.671326,405.049652   C613.501831,404.953033 622.341370,404.784088 631.162231,405.090240   C635.588013,405.243896 637.212708,404.175049 637.119690,399.367676   C636.807129,383.210419 637.004395,367.043304 637.015503,350.403259   C649.375061,349.929749 661.725708,349.932892 674.546753,349.942841  z"/>
<path fill="#096BA1" opacity="1.000000" stroke="none" d=" M722.047119,411.354980   C714.525879,395.811981 719.625854,379.635925 717.702576,363.779144   C719.195129,363.419189 720.204468,363.376099 720.992126,362.936218   C722.028564,362.357452 722.890686,361.466583 723.827637,360.709930   C723.092590,359.926147 722.476685,358.660675 721.601318,358.444061   C718.258484,357.617065 719.113953,355.072540 718.991211,352.471466   C731.382080,354.306396 742.645203,359.352509 753.643616,365.968079   C754.168518,372.538910 749.956604,368.041962 747.028625,368.328491   C751.599792,371.286102 750.239502,375.008423 750.157532,378.913239   C749.800720,395.904297 750.012634,412.907074 749.994202,429.905609   C749.991699,432.190460 749.854187,434.475220 749.779175,436.760010   C748.072083,435.056580 746.440796,433.268402 744.644836,431.664551   C737.156250,424.977112 729.618103,418.345184 722.047119,411.354980  z"/>
<path fill="#0972A8" opacity="1.000000" stroke="none" d=" M657.375732,406.007660   C657.878174,405.835510 658.755615,405.666595 659.816772,405.747070   C659.250610,406.001282 658.500671,406.006104 657.375732,406.007660  z"/>
<path fill="#000000" opacity="1.000000" stroke="none" d=" M1083.802979,437.000000   C1091.088013,437.388245 1098.136597,438.226959 1100.861816,445.531738   C1104.803955,456.097961 1099.595093,463.320160 1087.312500,464.752441   C1079.233154,465.694550 1070.828613,464.806488 1062.674438,463.847687   C1055.902344,463.051422 1051.904419,457.232635 1052.000000,450.252380   C1052.078735,444.489471 1056.437500,438.937256 1062.659180,438.129822   C1069.482910,437.244202 1076.433350,437.334808 1083.802979,437.000000  z"/>
<path fill="#000000" opacity="1.000000" stroke="none" d=" M980.836426,609.359375   C973.578064,605.825928 974.774231,599.471069 975.107117,593.758057   C975.392517,588.859741 979.519836,586.107971 983.504700,585.373413   C994.452393,583.355225 1005.584106,582.532654 1016.479370,586.035339   C1021.406250,587.619202 1023.750061,591.650024 1024.050781,597.110046   C1024.480591,604.914185 1021.263672,608.552368 1016.729858,609.862732   C1004.924622,613.274597 992.965515,613.240601 980.836426,609.359375  z"/>
<path fill="#000000" opacity="1.000000" stroke="none" d=" M919.997131,466.000000   C913.526062,466.000000 907.554016,466.000000 901.291748,466.000000   C901.291748,452.734314 901.291748,439.672668 901.291748,426.938660   C911.681763,426.938660 922.176270,426.777954 932.660645,427.033447   C935.945068,427.113464 939.572510,427.625244 942.396240,429.142761   C948.699402,432.530182 952.582336,442.854614 950.617188,449.752991   C949.674622,453.062042 948.676697,456.499969 946.914429,459.399719   C943.585327,464.877625 937.793274,465.735992 931.980835,465.970825   C928.158447,466.125244 924.324829,466.000000 919.997131,466.000000  z"/>
<path fill="#000000" opacity="1.000000" stroke="none" d=" M880.000061,586.001953   C882.189758,580.808228 884.342957,576.006165 886.746277,570.646179   C890.947998,580.436035 895.004944,589.888611 899.227051,599.725830   C890.778748,599.725830 882.739502,599.725830 874.065186,599.725830   C876.048828,595.242065 878.006226,590.817749 880.000061,586.001953  z"/>
<path fill="#096398" opacity="1.000000" stroke="none" d=" M748.673767,595.183472   C751.952026,599.920288 754.922791,604.825378 757.808228,609.780090   C764.539124,621.338074 771.411133,632.819092 777.881897,644.521606   C783.841125,655.299072 789.284668,666.360413 795.086365,677.226746   C798.145508,682.956238 801.513306,688.520264 804.678345,694.194336   C805.531677,695.724121 806.153381,697.383118 807.353027,700.018860   C790.973267,700.018860 775.456177,700.018860 759.470825,700.011353   C757.054077,699.335876 755.025635,697.939819 753.173096,698.143616   C748.578186,698.649048 745.737671,697.350769 744.380676,692.729553   C743.760254,690.616577 742.358032,688.733215 740.764221,685.709595   C743.041199,686.652405 744.381897,687.207520 746.495972,688.082886   C746.677795,686.023010 746.976318,684.197815 746.979065,682.372253   C747.011658,660.784241 747.000000,639.196106 747.000000,617.608032   C747.000000,611.881714 746.900940,606.152588 747.060913,600.430725   C747.108337,598.734741 747.885010,597.059143 748.673767,595.183472  z"/>
<path fill="#096398" opacity="1.000000" stroke="none" d=" M739.284668,584.550903   C738.423401,584.279663 737.808472,583.801697 737.193542,583.323669   C737.488464,583.017517 737.783386,582.711365 738.078308,582.405212   C738.562561,583.051453 739.046753,583.697754 739.284668,584.550903  z"/>
<path fill="#000000" opacity="1.000000" stroke="none" d=" M1289.769775,472.324463   C1286.306152,468.154907 1287.006714,464.549255 1291.408081,463.053162   C1294.116577,462.132446 1297.004639,461.020905 1299.772217,461.119263   C1310.564087,461.502747 1321.343872,462.284119 1332.115723,463.084747   C1333.114868,463.159058 1334.026367,464.415222 1334.978516,465.122681   C1334.110229,466.083191 1333.424683,467.509888 1332.345703,467.932800   C1320.237427,472.678650 1307.654053,474.716309 1294.662476,473.948700   C1293.114136,473.857208 1291.607056,473.066254 1289.769775,472.324463  z"/>
<path fill="#000000" opacity="1.000000" stroke="none" d=" M1099.144775,590.000000   C1096.537964,590.000000 1094.410034,590.000000 1092.174194,590.000000   C1095.201416,582.248779 1100.292358,580.619995 1119.493774,581.000061   C1127.729614,581.163086 1133.523560,584.404846 1135.464844,590.000000   C1123.499512,590.000000 1111.561646,590.000000 1099.144775,590.000000  z"/>
<path fill="#0C78AD" opacity="1.000000" stroke="none" d=" M448.517090,497.021545   C452.874695,501.637573 451.963867,507.189301 451.990601,512.539429   C452.031158,520.663574 451.762024,528.797485 452.080872,536.909302   C452.313690,542.832886 451.728333,548.346130 447.991699,553.544373   C439.971222,553.955017 431.963470,554.002991 423.489807,554.053528   C418.321747,553.708923 413.622162,553.319702 408.916260,553.034607   C406.930908,552.914368 404.932281,553.013672 402.556824,552.616089   C403.168854,551.813477 404.227570,550.950378 405.148010,551.078674   C410.126129,551.772766 411.229431,549.578125 411.108032,544.908691   C410.788330,532.612122 411.150238,520.298828 410.908020,507.998688   C410.835724,504.326355 409.664642,500.675629 408.996948,497.015015   C409.204193,497.005157 409.411407,496.995331 409.932831,496.975037   C414.432465,496.937531 418.617889,496.910431 423.226868,496.910522   C431.783630,496.963348 439.916809,496.989014 448.517090,497.021545  z"/>
<path fill="#0D87BB" opacity="1.000000" stroke="none" d=" M583.169922,407.681274   C582.235901,407.930298 581.499023,407.939484 580.393921,407.936157   C574.994324,407.287628 569.963074,406.651550 564.467712,406.011932   C571.137329,405.802948 578.270996,405.597504 585.700195,405.685272   C585.119507,406.466095 584.243286,406.953766 583.169922,407.681274  z"/>
<path fill="#0E96CA" opacity="1.000000" stroke="none" d=" M290.988159,527.988770   C300.125427,518.755737 309.262665,509.522675 318.698120,500.142914   C326.529663,500.035339 326.705597,500.152313 326.991241,507.747833   C327.375580,517.967468 327.851501,528.189758 327.895233,538.412537   C327.909515,541.753662 326.513550,545.079102 326.126892,548.453430   C325.951569,549.983887 326.664612,551.616272 326.977081,553.552246   C325.597839,553.933289 324.216156,553.964478 322.419434,553.997803   C321.021851,554.511475 319.460083,554.814880 319.185028,555.580566   C318.706665,556.912231 319.007782,558.529236 319.007690,560.026611   C319.005188,604.796692 318.932526,649.567078 319.114594,694.336426   C319.133698,699.035522 317.732635,700.274353 313.222961,700.123657   C307.788422,699.942017 302.324707,700.634338 296.433167,700.539917   C296.813019,698.868286 297.538239,696.597961 298.469330,696.510193   C303.408966,696.044250 303.023895,692.743591 303.021759,689.310608   C302.990234,638.381958 303.002014,587.453247 302.997559,536.524597   C302.996979,529.870544 302.238220,529.344971 296.779877,531.648071   C294.684967,530.324463 292.836578,529.156616 290.988159,527.988770  z"/>
<path fill="#0A83B7" opacity="1.000000" stroke="none" d=" M408.569580,497.006165   C409.664642,500.675629 410.835724,504.326355 410.908020,507.998688   C411.150238,520.298828 410.788330,532.612122 411.108032,544.908691   C411.229431,549.578125 410.126129,551.772766 405.148010,551.078674   C404.227570,550.950378 403.168854,551.813477 402.088501,552.610718   C388.638458,553.320679 375.273834,553.638916 361.438477,553.919189   C361.096771,553.404358 361.119507,552.578003 361.370514,552.501587   C367.463470,550.646851 365.965698,545.651123 365.985382,541.351074   C366.033813,530.766968 365.754272,520.174377 366.104858,509.601685   C366.281494,504.274841 366.157104,499.669312 360.062561,497.364594   C374.024323,496.995483 388.050446,496.989349 402.546570,496.958557   C404.725128,496.955078 406.433685,496.976196 408.569580,497.006165  z"/>
<path fill="#6C6C6E" opacity="1.000000" stroke="none" d=" M283.427490,369.159088   C284.418701,370.302917 285.068298,371.367523 285.856506,372.719116   C285.996735,405.775787 286.023376,438.545563 285.957458,471.315094   C285.951508,474.264313 285.347626,477.212341 285.015137,480.585083   C282.210876,483.915161 279.412872,486.821075 276.317444,489.874115   C275.679993,485.243378 275.055267,480.466095 275.045197,475.687531   C274.966614,438.427643 275.006195,401.167480 275.023743,363.434845   C277.720734,365.001495 280.403290,367.040710 283.427490,369.159088  z"/>
<path fill="#555556" opacity="1.000000" stroke="none" d=" M295.028564,382.397400   C298.231232,384.858093 301.578918,387.600769 304.596954,390.667755   C308.311127,394.442200 308.924683,399.444336 308.972015,404.415039   C309.089417,416.734985 307.885376,429.189819 309.320892,441.341309   C310.818756,454.020386 304.940613,462.107422 296.326111,469.877197   C296.018524,443.907898 296.040070,417.789246 295.957428,391.670868   C295.948090,388.720734 295.351532,385.772430 295.028564,382.397400  z"/>
<path fill="#0F9DD2" opacity="1.000000" stroke="none" d=" M290.717163,528.182312   C292.836578,529.156616 294.684967,530.324463 296.779877,531.648071   C302.238220,529.344971 302.996979,529.870544 302.997559,536.524597   C303.002014,587.453247 302.990234,638.381958 303.021759,689.310608   C303.023895,692.743591 303.408966,696.044250 298.469330,696.510193   C297.538239,696.597961 296.813019,698.868286 295.982208,700.515442   C285.262543,700.611938 274.553436,700.324402 263.422577,700.011108   C263.001343,656.866821 263.136078,613.747559 262.901245,570.630371   C262.847412,560.744812 264.191101,551.902344 272.857666,545.317505   C278.817352,539.471558 284.631775,533.923706 290.717163,528.182312  z"/>
</svg>